<svg width="16" height="16" viewBox="0 0 16 16" fill="none" xmlns="http://www.w3.org/2000/svg">
<g clip-path="url(#clip0_0_937)">
<path fill-rule="evenodd" clip-rule="evenodd" d="M12.9771 6.92559C13.0171 6.82559 12.9871 6.70559 12.9071 6.62559L10.2171 4.05559C10.1371 3.97559 10.0171 3.95559 9.91708 3.99559C9.81708 4.04559 9.75708 4.13559 9.75708 4.24559V5.72559C9.75708 5.88559 9.63708 6.00559 9.47708 6.00559H3.27708C3.20708 6.00559 3.13708 6.03559 3.08708 6.08559C3.03708 6.13559 3.00708 6.20559 3.00708 6.27559V6.82559C3.00708 6.97559 3.12708 7.09559 3.27708 7.09559H12.7171C12.8271 7.09559 12.9271 7.02559 12.9771 6.92559ZM3.02525 9.07161C2.98525 9.18161 3.00525 9.29161 3.08525 9.37161L5.78525 11.9516C5.85525 12.0216 5.97525 12.0416 6.07525 12.0016C6.17525 11.9616 6.24525 11.8616 6.24525 11.7516V10.2716C6.24525 10.1216 6.36525 9.99161 6.51525 9.99161H12.7152C12.8752 9.99161 12.9952 9.87161 12.9952 9.72161V9.17161C12.9952 9.02161 12.8752 8.90161 12.7152 8.90161H3.27525C3.16525 8.90161 3.06525 8.97161 3.02525 9.07161Z" fill="white"/>
</g>
<defs>
<clipPath id="clip0_0_937">
<rect width="16" height="16" fill="white"/>
</clipPath>
</defs>
</svg>
