<svg width="13" height="13" viewBox="0 0 13 13" fill="none" xmlns="http://www.w3.org/2000/svg">
<g clip-path="url(#clip0_0_907)">
<g clip-path="url(#clip1_0_907)">
<path fill-rule="evenodd" clip-rule="evenodd" d="M1.9762 5.43089C1.9762 6.97089 3.1962 8.99089 5.6062 11.5609L5.8462 11.8109C6.1962 12.1709 6.7662 12.1809 7.1262 11.8409L7.1462 11.8209C9.7262 9.13089 11.0262 7.02089 11.0262 5.43089C11.0262 2.94089 8.9962 0.910889 6.4962 0.910889C3.9962 0.910889 1.9762 2.94089 1.9762 5.43089ZM6.50254 1.78638C4.48254 1.78638 2.85254 3.41638 2.85254 5.43638C2.85254 6.59638 3.83254 8.29638 5.80254 10.4764L6.24254 10.9564L6.48254 11.2064C6.49254 11.2164 6.51254 11.2164 6.51254 11.2164L6.97254 10.7264C9.09254 8.42638 10.1525 6.64638 10.1525 5.43638C10.1525 3.41638 8.51254 1.78638 6.50254 1.78638Z" fill="#348BFF"/>
<path fill-rule="evenodd" clip-rule="evenodd" d="M6.50152 7.62658C7.71152 7.62658 8.69152 6.64658 8.69152 5.43658C8.69152 4.22658 7.71152 3.24658 6.50152 3.24658C5.29152 3.24658 4.31152 4.22658 4.31152 5.43658C4.31152 6.64658 5.29152 7.62658 6.50152 7.62658ZM5.18701 5.43207C5.18701 6.16207 5.77701 6.75207 6.49701 6.75207C7.22701 6.75207 7.81701 6.16207 7.81701 5.43207C7.81701 4.71207 7.22701 4.12207 6.49701 4.12207C5.77701 4.12207 5.18701 4.71207 5.18701 5.43207Z" fill="#348BFF"/>
</g>
</g>
<defs>
<clipPath id="clip0_0_907">
<rect width="13" height="13" fill="white"/>
</clipPath>
<clipPath id="clip1_0_907">
<rect width="9.04807" height="11.1784" fill="white" transform="translate(1.9762 0.910889)"/>
</clipPath>
</defs>
</svg>
